Coordinates
version=1
nRows=37
nColumns=38
inDegrees=no

Units are S.I. units (second, meters, Newtons, ...)
If the header above contains a line with 'inDegrees', this indicates whether rotational values are in degrees (yes) or radians (no).

endheader
time	pelvis_tilt	pelvis_list	pelvis_rotation	pelvis_tx	pelvis_ty	pelvis_tz	hip_flexion_r	hip_adduction_r	hip_rotation_r	knee_angle_r	ankle_angle_r	subtalar_angle_r	mtp_angle_r	hip_flexion_l	hip_adduction_l	hip_rotation_l	knee_angle_l	ankle_angle_l	subtalar_angle_l	mtp_angle_l	lumbar_extension	lumbar_bending	lumbar_rotation	arm_flex_r	arm_add_r	arm_rot_r	elbow_flex_r	pro_sup_r	wrist_flex_r	wrist_dev_r	arm_flex_l	arm_add_l	arm_rot_l	elbow_flex_l	pro_sup_l	wrist_flex_l	wrist_dev_l
22.23	3.02513	1.2574	-1.33475	0.692179	-0.165587	0.955225	-0.370326	0.0451054	-0.0725599	0.226464	-0.220116	0	0	-0.338707	-0.119163	-0.0894023	0.318187	-0.143979	0	0	-0.343808	0.104789	-0.0747633	0.18386	-0.360481	0.825293	0.660838	1.5708	0	0	0.17428	-0.294795	0.774862	0.596855	1.5708	0	0
22.24	3.02216	1.2603	-1.33214	0.692133	-0.165475	0.955168	-0.366777	0.0451398	-0.0718272	0.227289	-0.219907	0	0	-0.335528	-0.119039	-0.0873643	0.318497	-0.144084	0	0	-0.34	0.104705	-0.0768968	0.178312	-0.364031	0.819493	0.66213	1.5708	0	0	0.168028	-0.295924	0.774622	0.588372	1.5708	0	0
22.25	3.01963	1.26308	-1.33017	0.692095	-0.165367	0.955094	-0.363361	0.0449893	-0.0704996	0.22826	-0.219494	0	0	-0.332619	-0.118722	-0.0859803	0.318201	-0.144045	0	0	-0.336577	0.104319	-0.0786527	0.172764	-0.367515	0.813475	0.663293	1.5708	0	0	0.161246	-0.297258	0.771943	0.58247	1.5708	0	0
22.26	3.01805	1.26577	-1.32913	0.692059	-0.165267	0.955014	-0.36004	0.0445159	-0.0695206	0.229366	-0.219019	0	0	-0.329998	-0.118122	-0.0850886	0.317144	-0.144046	0	0	-0.333325	0.10363	-0.080307	0.16747	-0.370619	0.807236	0.6635	1.5708	0	0	0.153978	-0.298708	0.766701	0.578964	1.5708	0	0
22.27	3.01695	1.26814	-1.32842	0.692017	-0.165196	0.954953	-0.357003	0.0440048	-0.0694764	0.23057	-0.218542	0	0	-0.327484	-0.117525	-0.0840811	0.316958	-0.144089	0	0	-0.330474	0.103018	-0.0819049	0.162687	-0.373206	0.799704	0.661771	1.5708	0	0	0.146563	-0.300233	0.759742	0.577667	1.5708	0	0
22.28	3.01484	1.27043	-1.32695	0.69202	-0.165194	0.954923	-0.35311	0.0436716	-0.0698906	0.23357	-0.21777	0	0	-0.324742	-0.117203	-0.0828518	0.317599	-0.144303	0	0	-0.32797	0.10256	-0.082774	0.158333	-0.375768	0.793168	0.659412	1.5708	0	0	0.13944	-0.301714	0.751513	0.577946	1.5708	0	0
22.29	3.01145	1.27421	-1.32477	0.692142	-0.165228	0.954723	-0.346796	0.0431482	-0.0734102	0.237449	-0.216672	0	0	-0.319872	-0.116877	-0.0817683	0.31958	-0.143978	0	0	-0.324	0.101774	-0.0831125	0.15443	-0.37794	0.788034	0.656107	1.5708	0	0	0.13215	-0.303275	0.741797	0.57947	1.5708	0	0
22.3	3.00704	1.27774	-1.32164	0.692287	-0.165303	0.95452	-0.340005	0.0428924	-0.0767958	0.242926	-0.215124	0	0	-0.315102	-0.116939	-0.0809758	0.321489	-0.143117	0	0	-0.320211	0.10134	-0.0832672	0.150883	-0.379866	0.783464	0.65196	1.5708	0	0	0.125121	-0.304807	0.731652	0.581758	1.5708	0	0
22.31	3.00426	1.27928	-1.31949	0.69233	-0.165375	0.954471	-0.336546	0.0428781	-0.0770782	0.246834	-0.213439	0	0	-0.312971	-0.117038	-0.0800908	0.321955	-0.142385	0	0	-0.31835	0.101329	-0.0838316	0.147386	-0.381681	0.778545	0.647477	1.5708	0	0	0.118657	-0.306226	0.72207	0.584502	1.5708	0	0
22.32	3.00592	1.27962	-1.32072	0.692269	-0.165288	0.954454	-0.337019	0.0424849	-0.0737957	0.246346	-0.212127	0	0	-0.312722	-0.116383	-0.0788852	0.321844	-0.142062	0	0	-0.317406	0.100554	-0.0850937	0.143619	-0.383423	0.774654	0.643018	1.5708	0	0	0.112238	-0.30783	0.712774	0.58809	1.5708	0	0
22.33	3.00686	1.28016	-1.3221	0.692354	-0.165202	0.954432	-0.337293	0.0421399	-0.0719237	0.244716	-0.211699	0	0	-0.312521	-0.11577	-0.0785506	0.321396	-0.141989	0	0	-0.316555	0.0995745	-0.0855256	0.140317	-0.38458	0.771575	0.637638	1.5708	0	0	0.105764	-0.30909	0.701733	0.591874	1.5708	0	0
22.34	3.00591	1.28032	-1.32213	0.692465	-0.165105	0.954498	-0.336994	0.0421787	-0.0700705	0.245031	-0.211693	0	0	-0.312972	-0.115654	-0.0792262	0.320185	-0.142294	0	0	-0.316166	0.0991478	-0.0852665	0.137379	-0.38541	0.768941	0.631326	1.5708	0	0	0.0997462	-0.309462	0.689591	0.594969	1.5708	0	0
22.35	3.00384	1.28086	-1.3209	0.692539	-0.165065	0.954504	-0.336062	0.04242	-0.0695479	0.24528	-0.211859	0	0	-0.312472	-0.115829	-0.0795049	0.319893	-0.142395	0	0	-0.315373	0.0991169	-0.084944	0.134575	-0.386151	0.766301	0.624969	1.5708	0	0	0.0945326	-0.309198	0.677497	0.597442	1.5708	0	0
22.36	3.00209	1.28098	-1.31997	0.692643	-0.16513	0.95452	-0.335268	0.0426842	-0.0689069	0.246125	-0.211862	0	0	-0.312225	-0.11602	-0.079475	0.319884	-0.142392	0	0	-0.315363	0.0991928	-0.0843956	0.13183	-0.386513	0.761592	0.618759	1.5708	0	0	0.0898209	-0.308882	0.66585	0.600075	1.5708	0	0
22.37	3.00114	1.28087	-1.31967	0.692749	-0.16518	0.954522	-0.334981	0.0428583	-0.0683339	0.246646	-0.211701	0	0	-0.312206	-0.116111	-0.0794302	0.320064	-0.142292	0	0	-0.315588	0.0991275	-0.0835702	0.128878	-0.386711	0.75705	0.612944	1.5708	0	0	0.0857312	-0.308384	0.655722	0.602566	1.5708	0	0
22.38	3.00037	1.28109	-1.31954	0.692869	-0.165214	0.954487	-0.334651	0.0429681	-0.06831	0.24629	-0.211612	0	0	-0.311664	-0.116114	-0.079549	0.320727	-0.142004	0	0	-0.315529	0.0988662	-0.0828279	0.126009	-0.386565	0.752648	0.607294	1.5708	0	0	0.0818475	-0.30734	0.644486	0.604642	1.5708	0	0
22.39	2.99931	1.28078	-1.31877	0.692943	-0.165244	0.954542	-0.334615	0.0433333	-0.0671729	0.246984	-0.211476	0	0	-0.311769	-0.116455	-0.0794842	0.320985	-0.141844	0	0	-0.315812	0.0989911	-0.0824789	0.123331	-0.386293	0.748421	0.601995	1.5708	0	0	0.0785521	-0.305793	0.634101	0.605898	1.5708	0	0
22.4	2.99881	1.28085	-1.3184	0.693011	-0.16527	0.954547	-0.334354	0.0434637	-0.0669752	0.247255	-0.211402	0	0	-0.311523	-0.116578	-0.0789717	0.321207	-0.1419	0	0	-0.315657	0.0988761	-0.0822583	0.120441	-0.385738	0.743698	0.597335	1.5708	0	0	0.0754796	-0.304131	0.624365	0.607276	1.5708	0	0
22.41	2.99886	1.281	-1.31844	0.693049	-0.16528	0.954537	-0.334101	0.0434252	-0.0670033	0.247442	-0.211335	0	0	-0.311115	-0.116551	-0.0785864	0.32177	-0.142068	0	0	-0.31546	0.09859	-0.0819991	0.117108	-0.385103	0.737996	0.593688	1.5708	0	0	0.0724902	-0.302143	0.614098	0.608787	1.5708	0	0
22.42	2.99912	1.28127	-1.31851	0.69307	-0.165279	0.954529	-0.333824	0.0433864	-0.0669184	0.24746	-0.211256	0	0	-0.310536	-0.116491	-0.0783923	0.322315	-0.142106	0	0	-0.315227	0.0981814	-0.0820003	0.11358	-0.384086	0.73116	0.590739	1.5708	0	0	0.0696325	-0.300145	0.603351	0.610705	1.5708	0	0
22.43	2.9998	1.28207	-1.31904	0.693122	-0.16529	0.954469	-0.333074	0.0431418	-0.0674672	0.247035	-0.211272	0	0	-0.30935	-0.116194	-0.0781625	0.322991	-0.141922	0	0	-0.314443	0.0974413	-0.0822062	0.109878	-0.382696	0.723145	0.588566	1.5708	0	0	0.0666121	-0.298609	0.593469	0.613486	1.5708	0	0
22.44	3.00044	1.28257	-1.31938	0.693159	-0.165294	0.954455	-0.332447	0.0429925	-0.0674372	0.247295	-0.211224	0	0	-0.308603	-0.11603	-0.0779014	0.323301	-0.141853	0	0	-0.313891	0.096754	-0.0824701	0.106195	-0.381582	0.715428	0.587547	1.5708	0	0	0.0640717	-0.296974	0.58487	0.616115	1.57026	0	0
22.45	3.00099	1.28271	-1.31944	0.693163	-0.165284	0.954489	-0.332412	0.0430173	-0.0675898	0.247401	-0.211129	0	0	-0.308362	-0.115994	-0.0775178	0.323253	-0.141984	0	0	-0.313903	0.0962101	-0.0828422	0.102379	-0.380408	0.706522	0.587628	1.5708	0	0	0.061573	-0.294493	0.574624	0.618397	1.56646	0	0
22.46	3.00167	1.28262	-1.31959	0.693154	-0.165314	0.954521	-0.332673	0.0430981	-0.0674841	0.247303	-0.211054	0	0	-0.308428	-0.115906	-0.0768377	0.322911	-0.142096	0	0	-0.314358	0.0956588	-0.0833184	0.0987344	-0.379442	0.697477	0.588953	1.5708	0	0	0.059206	-0.291985	0.564758	0.620987	1.56134	0	0
22.47	3.00285	1.28226	-1.32019	0.693135	-0.1654	0.954556	-0.333147	0.0430579	-0.067319	0.247282	-0.21105	0	0	-0.308784	-0.11572	-0.0759251	0.322416	-0.14209	0	0	-0.315313	0.0949352	-0.083835	0.0953732	-0.378586	0.688289	0.591095	1.5708	0	0	0.0569678	-0.289841	0.555582	0.62421	1.55537	0	0
22.48	3.0045	1.28184	-1.32141	0.69312	-0.165446	0.954592	-0.333753	0.0428402	-0.0672682	0.247236	-0.211055	0	0	-0.309355	-0.115406	-0.0753268	0.321993	-0.142215	0	0	-0.316389	0.0940362	-0.0842658	0.0921911	-0.377869	0.679309	0.593823	1.5708	0	0	0.0546345	-0.288062	0.547167	0.62808	1.54848	0	0
22.49	3.0056	1.28101	-1.32214	0.693133	-0.165446	0.95467	-0.334744	0.0429413	-0.0664985	0.247453	-0.210881	0	0	-0.310394	-0.115484	-0.0753828	0.321696	-0.142558	0	0	-0.317703	0.0933464	-0.0844732	0.0893312	-0.377145	0.671211	0.596548	1.5708	0	0	0.0527834	-0.286013	0.539694	0.631705	1.54067	0	0
22.5	3.00687	1.28058	-1.32326	0.693186	-0.165476	0.954667	-0.335498	0.0428895	-0.0671675	0.246659	-0.210863	0	0	-0.310873	-0.115386	-0.0754106	0.32186	-0.14288	0	0	-0.318609	0.0923753	-0.0843724	0.0868291	-0.37613	0.663812	0.598981	1.5708	0	0	0.0514044	-0.284218	0.534042	0.635582	1.53346	0	0
22.51	3.00799	1.27966	-1.3239	0.693169	-0.165504	0.954737	-0.336504	0.0429651	-0.066748	0.246847	-0.210903	0	0	-0.311927	-0.115451	-0.0752459	0.321489	-0.143098	0	0	-0.319649	0.0918869	-0.0844314	0.0850882	-0.375353	0.659319	0.600796	1.5708	0	0	0.0510797	-0.282283	0.530712	0.638459	1.52789	0	0
22.52	3.00983	1.27927	-1.32568	0.693209	-0.165545	0.954719	-0.337192	0.0426583	-0.0671181	0.24618	-0.21092	0	0	-0.31249	-0.115032	-0.0751453	0.321142	-0.143189	0	0	-0.320168	0.0910505	-0.0841467	0.0836382	-0.374595	0.656162	0.602652	1.5708	0	0	0.0507982	-0.280836	0.52852	0.642058	1.52316	0	0
22.53	3.01161	1.27879	-1.32735	0.693247	-0.165577	0.954721	-0.337751	0.0424081	-0.0671188	0.246059	-0.210873	0	0	-0.312977	-0.114672	-0.0750482	0.321424	-0.143292	0	0	-0.320579	0.0903521	-0.0837838	0.0825013	-0.373865	0.654546	0.604185	1.5708	0	0	0.0506621	-0.279689	0.527411	0.645875	1.52004	0	0
22.54	3.01302	1.27751	-1.32838	0.693251	-0.165634	0.954788	-0.339056	0.0424594	-0.0667772	0.246511	-0.21077	0	0	-0.314145	-0.114739	-0.0749586	0.321879	-0.143333	0	0	-0.321955	0.0898525	-0.0835741	0.0816601	-0.373278	0.653327	0.605906	1.5708	0	0	0.0509332	-0.278889	0.527335	0.650117	1.51865	0	0
22.55	3.0139	1.27608	-1.32891	0.693277	-0.165698	0.95485	-0.340706	0.0426916	-0.0671516	0.246434	-0.210702	0	0	-0.315417	-0.115056	-0.0748886	0.322249	-0.143229	0	0	-0.323521	0.0896141	-0.0833554	0.0809471	-0.372842	0.652217	0.607912	1.5708	0	0	0.0513711	-0.278316	0.528085	0.654488	1.51886	0	0
22.56	3.01479	1.27499	-1.32988	0.693359	-0.165713	0.954893	-0.34203	0.0427982	-0.0672737	0.246089	-0.210671	0	0	-0.316533	-0.11515	-0.0751536	0.322277	-0.143076	0	0	-0.32472	0.0892205	-0.0827624	0.0801319	-0.37239	0.651054	0.609908	1.5708	0	0	0.0518499	-0.277739	0.528825	0.658772	1.51903	0	0
22.57	3.01554	1.27397	-1.33101	0.693472	-0.165689	0.954951	-0.343369	0.0428252	-0.0671017	0.245625	-0.210717	0	0	-0.317682	-0.115143	-0.0756116	0.322461	-0.143098	0	0	-0.32577	0.0888189	-0.0818341	0.079284	-0.371962	0.64992	0.611706	1.5708	0	0	0.0523043	-0.277282	0.530122	0.66311	1.51933	0	0
22.58	3.01608	1.27344	-1.33231	0.693633	-0.165644	0.954928	-0.344163	0.0427812	-0.0674795	0.244787	-0.210832	0	0	-0.318264	-0.114988	-0.0765222	0.322796	-0.143031	0	0	-0.326211	0.0882456	-0.0805098	0.0784133	-0.371397	0.648696	0.613071	1.5708	0	0	0.052707	-0.277274	0.532496	0.667776	1.52047	0	0
22.59	3.01566	1.2725	-1.33233	0.693745	-0.165596	0.954979	-0.345131	0.0431443	-0.0667733	0.244847	-0.210932	0	0	-0.319171	-0.115291	-0.0776168	0.322881	-0.142875	0	0	-0.326971	0.0882442	-0.0792865	0.0776023	-0.370874	0.647384	0.614017	1.5708	0	0	0.0533366	-0.277352	0.535806	0.67206	1.5226	0	0
